<?xml version="1.0" encoding="UTF-8" standalone="no"?>
<!DOCTYPE svg PUBLIC "-//W3C//DTD SVG 1.1//EN" "http://www.w3.org/Graphics/SVG/1.1/DTD/svg11.dtd">
<svg width="100%" height="100%" viewBox="0 0 594 594" version="1.1" xmlns="http://www.w3.org/2000/svg" xmlns:xlink="http://www.w3.org/1999/xlink" xml:space="preserve" xmlns:serif="http://www.serif.com/" style="fill-rule:evenodd;clip-rule:evenodd;">
    <g id="Layer-1" serif:id="Layer 1" transform="matrix(1.79483,0,0,1.79483,1141.45,526.741)">
        <g id="path926" transform="matrix(0.264583,0,0,0.264583,0,0)">
            <path d="M-1455.97,39.237L-1338.45,39.237C-1280.28,-295.592 -1222.19,-630.336 -1164.45,-965.59L-1394.46,-965.59C-1412.71,-836.075 -1431.62,-706.926 -1448.91,-577.581C-1466.18,-448.293 -1481.79,-318.808 -1498.15,-189.406C-1499.01,-164.068 -1511.09,-172.099 -1455.97,39.237Z" style="fill:url(#_Linear1);fill-rule:nonzero;"/>
        </g>
        <path id="path914" d="M-632.156,-255.464C-632.156,-254.857 -632.207,-254.511 -632.147,-254.196C-631.677,-251.617 -631.206,-249.037 -630.735,-246.458C-615.223,-161.43 -599.705,-76.402 -584.185,8.648C-584.096,9.136 -583.922,9.601 -583.772,10.074C-583.75,10.141 -583.676,10.201 -583.616,10.254C-583.556,10.306 -583.48,10.351 -583.412,10.396C-581.01,10.563 -560.478,10.43 -546.319,10.423C-545.177,-6.66 -536.551,-33.845 -539.129,-48.415C-539.168,-48.58 -539.694,-52.026 -539.716,-52.191C-541.074,-62.938 -542.401,-73.686 -543.789,-84.426C-546.691,-106.889 -549.58,-129.351 -552.557,-151.799C-554.515,-166.544 -556.606,-181.266 -558.654,-195.996C-561.129,-213.839 -563.611,-231.689 -566.101,-249.532C-566.371,-251.482 -566.702,-253.417 -567.017,-255.464L-632.154,-255.464L-632.156,-255.464Z" style="fill:url(#_Linear2);fill-rule:nonzero;stroke:url(#_Linear3);stroke-width:0.75px;"/>
        <g id="path918" transform="matrix(0.264583,0,0,0.264583,0,0)">
            <path d="M-1872.3,-965.535C-1874.9,-953.941 -1877.45,-942.716 -1879.95,-931.491C-1904.81,-819.268 -1929.33,-706.982 -1954.56,-594.844C-1976.55,-496.992 -1995.2,-398.493 -2013.2,-299.847C-2014.64,-292.006 -2016.04,-284.16 -2017.46,-276.317C-2022.34,-249.426 -2027.18,-222.524 -2032.05,-195.64C-2052.28,-123.931 -2067.76,-37.491 -2084.06,39.901C-2000.71,39.859 -1911.91,39.375 -1906.9,38.218C-1863.14,-184.188 -1813.79,-405.859 -1779.89,-630.476C-1779.83,-630.731 -1779.49,-630.929 -1778.83,-631.666L-1773.11,-630.958C-1771.24,-617.748 -1769.62,-605.078 -1767.58,-592.435C-1760.19,-546.486 -1753.81,-500.339 -1744.93,-454.673C-1729.37,-374.679 -1712.25,-294.969 -1695.84,-215.145C-1678.83,-132.544 -1661.9,-49.915 -1644.9,32.715C-1644.44,34.812 -1643.62,36.827 -1642.89,39.237L-1455.97,39.237L-1668.12,-965.535L-1872.3,-965.535Z" style="fill:rgb(62,119,216);fill-rule:nonzero;"/>
        </g>
    </g>
    <defs>
        <linearGradient id="_Linear1" x1="0" y1="0" x2="1" y2="0" gradientUnits="userSpaceOnUse" gradientTransform="matrix(146.657,-25.4234,25.4234,146.657,-1585.75,-17.9142)"><stop offset="0" style="stop-color:black;stop-opacity:1"/><stop offset="1" style="stop-color:rgb(12,66,159);stop-opacity:1"/></linearGradient>
        <linearGradient id="_Linear2" x1="0" y1="0" x2="1" y2="0" gradientUnits="userSpaceOnUse" gradientTransform="matrix(-45.3234,-10.1011,10.1011,-45.3234,-514.49,3.82869)"><stop offset="0" style="stop-color:black;stop-opacity:1"/><stop offset="1" style="stop-color:rgb(12,66,159);stop-opacity:1"/></linearGradient>
        <linearGradient id="_Linear3" x1="0" y1="0" x2="1" y2="0" gradientUnits="userSpaceOnUse" gradientTransform="matrix(94.2812,0,0,94.2812,-632.554,-122.493)"><stop offset="0" style="stop-color:black;stop-opacity:1"/><stop offset="1" style="stop-color:black;stop-opacity:0"/></linearGradient>
    </defs>
</svg>
