<?xml version="1.0" encoding="UTF-8"?><svg id="Layer_2" xmlns="http://www.w3.org/2000/svg" viewBox="0 0 432.11 354.8"><g id="Layer_1-2"><g id="xsWdPa.tif"><path fill="#000000" d="M.03,.04H86.88c.42,2.73,.86,5.31,1.22,7.91,3.32,23.79,6.63,47.59,9.93,71.38,2.73,19.64,5.52,39.27,8.13,58.93,3.97,29.93,7.82,59.88,11.69,89.83,1.85,14.32,3.62,28.65,5.43,42.98,.03,.22,.02,.44,.07,.66,.19,.89-.17,2.26,1.33,2.2,1.37-.06,1.19-1.37,1.36-2.29,2.22-12.25,4.41-24.51,6.65-36.76,6.35-34.8,12.93-69.55,20.69-104.07,8.9-39.56,17.55-79.17,26.32-118.76,.88-3.96,1.78-7.92,2.7-12.01h72.03c.29,1.05,.65,2.17,.91,3.31,8.6,37.27,17.19,74.54,25.76,111.81,3.66,15.89,7.54,31.74,10.82,47.71,3.72,18.12,6.96,36.34,10.28,54.54,3.26,17.89,6.35,35.8,9.53,53.71,.46,2.6,.5,2.6,2.66,2.72,5.77-45.65,11.28-91.33,17.37-136.94,6.1-45.63,12.77-91.19,19.21-136.88h81.14c-20.37,118.27-40.86,236.36-61.38,354.48h-107.4c-.26-.85-.55-1.56-.71-2.3-6-29.15-11.97-58.3-17.97-87.44-5.79-28.16-11.83-56.28-17.32-84.5-3.13-16.11-5.38-32.39-7.99-48.6-.72-4.46-1.29-8.93-1.95-13.59l-2.02-.25c-.23,.26-.35,.33-.37,.42-11.96,79.24-29.37,157.44-44.81,235.9-2.9,.67-96.98,.95-105.17,.38-.09-.06-.19-.12-.27-.19-.08-.07-.18-.15-.21-.24-.2-.63-.43-1.25-.55-1.9C42.67,235.35,21.35,118.54,.04,1.73-.04,1.31,.03,.85,.03,.04Z"/></g></g></svg>