<?xml version="1.0" encoding="UTF-8" standalone="no"?>
<!-- Created with Inkscape (http://www.inkscape.org/) -->

<svg
   version="1.1"
   id="svg2"
   xml:space="preserve"
   width="1496"
   height="1496"
   viewBox="0 0 1496 1496"
   sodipodi:docname="25723.eps"
   xmlns:inkscape="http://www.inkscape.org/namespaces/inkscape"
   xmlns:sodipodi="http://sodipodi.sourceforge.net/DTD/sodipodi-0.dtd"
   xmlns="http://www.w3.org/2000/svg"
   xmlns:svg="http://www.w3.org/2000/svg"><defs
     id="defs6" /><sodipodi:namedview
     id="namedview4"
     pagecolor="#ffffff"
     bordercolor="#666666"
     borderopacity="1.0"
     inkscape:pageshadow="2"
     inkscape:pageopacity="0.0"
     inkscape:pagecheckerboard="0" /><g
     id="g8"
     inkscape:groupmode="layer"
     inkscape:label="ink_ext_XXXXXX"
     transform="matrix(1.3333333,0,0,-1.3333333,0,1496)"><g
       id="g10"
       transform="scale(0.1)"><path
         d="m 4074.79,5059.94 c 1.47,0.66 2.92,1.04 4.33,1.3 4.41,14.09 8.81,28.12 13.23,42.08 -155.55,-51.96 -301.12,-127.2 -448.12,-199.33 -30.48,-14.95 -61.15,-29.51 -91.86,-44.01 15.77,-13.4 31.58,-26.75 47.58,-39.83 76.83,49.88 159.19,87.73 242.4,125.75 78.62,35.92 153.49,78.79 232.44,114.04"
         style="fill:rgb(12,66,159);fill-opacity:1;fill-rule:nonzero;stroke:none"
         id="path16" /><path
         d="m 3665.25,4767.43 c 16.01,-12.79 32.03,-25.58 47.98,-38.44 54.56,23.05 105.89,52.79 161.71,73.87 47.86,18.07 94.91,48.78 145.91,56.13 5.65,22.06 11.54,44.05 17.68,65.95 -57.45,-28.43 -118.76,-51.26 -176.75,-78.15 -64.12,-29.73 -129.44,-57.08 -196.53,-79.36"
         style="fill:rgb(12,66,159);fill-opacity:1;fill-rule:nonzero;stroke:none"
         id="path18" /><path
         d="m 4643.77,5946.67 c -37.74,-66.49 -99.46,-116.92 -148.96,-174.6 -56.84,-66.26 -116.27,-141.27 -160.48,-217 -7.6,-13.01 -27.55,-0.9 -19.97,12.15 36.8,63.33 85.7,127.11 133.31,183.1 58.52,68.85 135.06,128 185.02,203.09 4.62,6.96 15.23,0.56 11.08,-6.74 z m -376.54,-355.33 c 76.56,124.56 186.65,229.51 290.4,330.98 5.92,5.8 14.42,-3.18 8.87,-9.18 -97.76,-105.52 -201.78,-212.09 -279.67,-333.72 -7.96,-12.43 -27.38,-0.73 -19.6,11.92 z m -42.19,11.93 c 44.01,61.07 87.05,120.81 137.66,176.74 30.23,33.42 74.62,96.98 120.1,108.45 2.87,0.72 5.54,-3.27 2.97,-5.3 -96.53,-76.05 -169.34,-193.64 -239.84,-292.59 -9.09,-12.77 -30.12,-0.11 -20.89,12.7 z m -52.17,30.6 c 20.41,41.69 60.28,78.01 91.67,111.54 38.49,41.1 79.25,79.4 121.62,116.45 7.11,6.22 17.08,-3.94 10.23,-10.59 -40.3,-38.99 -80.73,-78.36 -117.37,-120.86 -29.43,-34.16 -65.38,-68.58 -87.1,-108.12 -7,-12.74 -25.27,-1.14 -19.05,11.58 z m -32.91,7.74 c 21.6,47.99 66.66,89.45 100.06,129.53 10.47,12.57 37.69,58.53 56.28,61.4 1.29,0.2 2.06,-0.93 1.55,-2.09 -32.96,-74.2 -104.17,-127.74 -139.95,-199.75 -6.1,-12.27 -23.36,-1.16 -17.94,10.91 z m -40.71,24.86 c 34.79,43.43 65,90.44 101.19,133 5.32,6.24 16.31,-2.52 11.24,-8.99 -20.04,-25.55 -37.6,-52.82 -57.02,-78.81 -14.53,-19.44 -25.21,-41.55 -41.43,-59.67 -8.84,-9.86 -21.87,4.63 -13.98,14.47 z m 657.95,420.64 c -145.27,62.69 -299.49,93.18 -453.83,124.38 -164.81,33.32 -326.8,81.93 -488.11,129.07 -328.09,95.89 -655.11,194.57 -985.64,281.93 -121.7,32.17 -243.58,63.59 -365.52,94.86 -47.6,-26.83 -96.94,-51.15 -147.26,-68.29 -11.82,-4.03 -19.55,15.19 -8.16,20.31 36.53,16.44 70,38.74 103.27,61.35 -13.59,3.48 -27.17,6.99 -40.77,10.46 -27.14,-13.68 -54.05,-27.45 -79.18,-42.97 -12.77,-7.89 -23.17,11.76 -11.23,20.01 16.11,11.12 32.54,22.35 49.19,33.53 -165.74,42.33 -331.52,84.49 -497.09,127.56 -158.98,41.35 -316.71,87.24 -473.19,137.24 -142.9,45.66 -291.72,109.73 -442.871,120.36 191.071,-42.12 443.331,-177.17 639.831,-281.6 237.94,-126.45 478.12,-249.3 719.44,-369.45 23.13,6.28 51.23,5.09 74.39,5.63 9.13,0.21 9.58,-13.06 0.63,-14.05 -13.43,-1.5 -26.85,-3.27 -40.24,-5.15 -1.82,-0.26 -3.66,-0.6 -5.51,-0.91 13.02,-6.47 26.07,-12.9 39.1,-19.35 27.62,2.11 55.05,5.66 81.89,13.51 9.64,2.82 14.44,-11.92 4.81,-14.82 -19.16,-5.75 -38.47,-9.84 -57.94,-12.93 11.23,-5.55 22.44,-11.13 33.67,-16.67 44.82,4.24 89.69,8.42 134.57,11.56 7.33,0.51 7.58,-10.3 0.5,-11.24 -34.86,-4.62 -69.72,-10.95 -104.73,-15.33 11.3,-5.55 22.56,-11.21 33.86,-16.76 6.12,-3 12.22,-6 18.32,-9 65.48,8.2 130.35,19.87 195.77,28.5 7.4,0.98 7.65,-10.28 0.51,-11.46 -56.03,-9.19 -111.73,-23.51 -168.16,-30.85 19.44,-9.54 38.88,-19.08 58.3,-28.64 66.63,15.14 136.52,20.97 203.71,31.99 6.6,1.09 8.66,-10.34 2.11,-11.6 -58.64,-11.3 -118.24,-25.24 -177.78,-34.16 14.87,-7.32 29.74,-14.63 44.62,-21.94 81.63,11.28 162.61,25.72 243.84,39.44 8.95,1.51 9.44,-12.53 0.64,-14.05 -72.35,-12.55 -144.27,-28.19 -216.94,-38.92 17.23,-8.48 34.48,-16.94 51.71,-25.41 93.47,14.53 187.23,24.83 278.8,49.64 9.67,2.62 14.51,-12.09 4.82,-14.82 -82.87,-23.34 -167.87,-37.2 -252.94,-49.88 21.45,-10.54 42.91,-21.08 64.37,-31.6 103.37,20.63 206.63,49.23 311.17,60.74 7.32,0.8 7.51,-10.13 0.5,-11.24 -94.9,-15.02 -186.56,-45.09 -280.64,-64.68 21.23,-10.4 42.47,-20.79 63.71,-31.18 0.67,0.49 1.34,0.97 2.22,1.24 56.35,17.69 116.59,25.87 174.14,39.95 54.41,13.32 107.78,24.46 164.03,25.12 7.24,0.09 7.77,-10.91 0.51,-11.24 -107.58,-4.94 -209.82,-47.31 -315.36,-67.54 18.25,-8.9 36.5,-17.76 54.75,-26.65 123.51,18.54 249.12,54.31 373.83,60.97 2.94,0.15 3.73,-4.19 0.93,-5.07 -108.82,-33.79 -227.17,-57.96 -341.53,-72.06 27.24,-13.24 54.52,-26.42 81.78,-39.59 124.66,24.1 250.82,39.45 375.42,64.93 5.34,1.09 8.11,-6.48 2.68,-8.23 -110.44,-35.76 -230.14,-59.05 -346.5,-71.97 25.4,-12.24 50.82,-24.41 76.23,-36.58 119.12,19.7 237.33,45 357.35,58.8 3.37,0.39 4.43,-5.25 1.07,-5.9 -109.38,-21.33 -217.6,-47.42 -327.13,-67.87 21.08,-10.07 42.17,-20.09 63.27,-30.1 55.4,9.85 109.92,24.03 165.79,31.91 63.38,8.93 126.87,15.62 188.65,33.15 4.56,1.3 6.76,-5.45 2.27,-7 -62.13,-21.38 -125.45,-33.43 -190.12,-43.88 -45.96,-7.42 -91.04,-19.11 -136.55,-28.39 29.46,-13.93 58.94,-27.8 88.45,-41.62 104.81,17.67 210.47,34.44 314.36,54.33 6.25,1.2 9.55,-7.59 3.13,-9.67 -66.92,-21.72 -140.27,-26.74 -209.33,-40.12 -27.22,-5.28 -54.29,-11.21 -81.38,-17.03 288.8,-134.71 580.34,-263.36 877.83,-379.53 3.29,-1.28 6.05,-2.99 8.57,-4.87 125.3,197.45 326.46,343.39 420.93,558.67 -3.37,0.37 -6.86,1.1 -10.61,2.72"
         style="fill:rgb(12,66,159);fill-opacity:1;fill-rule:nonzero;stroke:none"
         id="path20" /><path
         d="m 3407.79,4916.94 c 94.19,46.95 190.84,88.88 284.65,136.58 64.54,32.81 126.27,71.82 192.91,100.2 -158,75.63 -288.11,200.49 -431.04,298.78 -8.21,5.64 -0.86,17.29 7.93,13.03 168.95,-81.83 300.73,-231.95 478.45,-300.48 19.82,-7.64 10.44,-39.68 -9.34,-31.76 -3.32,1.32 -6.53,2.83 -9.82,4.2 -1.7,-4.43 -5.1,-8.31 -10.61,-10.34 -87.18,-32.05 -167.19,-83.85 -251.86,-122.11 -80.81,-36.52 -163.09,-69.76 -245.63,-102.13 -8.11,-3.18 -13.27,10.22 -5.64,14.03 z M 1573.28,6571.48 c -180.97,95.77 -334.18,232.17 -505.56,343.05 -19.28,12.47 -0.79,43.11 18.56,30.5 170.64,-111.18 320.09,-256.28 496.11,-358.57 9.84,-5.72 0.82,-20.23 -9.11,-14.98 z M 4018.76,5144.47 c -107.61,48.81 -208.33,118.28 -303.54,185.84 -135.23,95.96 -272.31,189.43 -412.26,278.42 -267.64,170.18 -547.77,313.6 -824.06,468.41 -282.73,158.41 -555.71,332.67 -824.81,513.08 -244.41,163.86 -496.21,321.7 -734.754,494.4 137.354,-204.81 291.414,-398.08 419.624,-608.89 145.98,-240.02 293.85,-478.97 432.85,-723.15 131.28,-230.6 265.74,-462.87 380.68,-702.13 55.57,-115.64 100.38,-233.52 143.25,-354.24 38.5,-108.43 64.9,-222.35 123.26,-322.39 100.8,74.16 216.67,124.82 330.29,176.84 147.95,67.74 294.32,139.28 441.49,208.76 156.12,73.7 313.69,144.35 468.18,221.45 118.02,58.91 236.33,117.43 359.8,163.6"
         style="fill:rgb(12,66,159);fill-opacity:1;fill-rule:nonzero;stroke:none"
         id="path22" /><path
         d="m 3726.33,4718.27 c 15.55,-12.61 31.12,-25.21 46.49,-38.06 0.6,-0.5 1.12,-1.04 1.7,-1.54 76.25,26.23 152.94,61.28 226.16,95.53 3.44,15.74 7.03,31.46 10.8,47.16 -49.86,-12.92 -101.63,-38.44 -149.52,-54.61 -45.44,-15.35 -89.87,-34.15 -135.63,-48.48"
         style="fill:rgb(12,66,159);fill-opacity:1;fill-rule:nonzero;stroke:none"
         id="path24" /><path
         d="m 3612,4810.4 c 14.24,-11.55 28.47,-23.12 42.78,-34.57 134.56,52.96 265.69,126.3 394.15,192.46 0.77,0.39 1.52,0.63 2.28,0.9 4.9,16.75 9.89,33.41 14.96,50.01 -77.68,-36.31 -152.72,-77.96 -232.25,-110.32 -75.04,-30.53 -150.38,-60.37 -221.92,-98.48"
         style="fill:rgb(12,66,159);fill-opacity:1;fill-rule:nonzero;stroke:none"
         id="path26" /><path
         d="m 4319.6,5467.07 c -309.97,103.16 -609.3,246.56 -903.03,388.44 -302.24,145.99 -603.47,294.66 -903.36,445.44 -308.88,155.3 -615.44,315.38 -918.4,481.94 -112.52,61.86 -241.5,108.52 -352.2,173.43 -87.49,51.3 -164.06,99.82 -259.141,137.58 239.831,-139.8 467.571,-304.98 699.961,-455.43 264.53,-171.26 530.78,-340.99 806.43,-493.94 276.78,-153.57 558.51,-294.74 826.7,-463.71 140.1,-88.27 278.07,-179.89 413.51,-275.16 115.71,-81.39 239.61,-170.87 373.66,-218.46 7.62,-2.71 13.18,-7.12 17.12,-12.39 25.43,-6.7 31.45,-50.04 0.9,-61.45 -19.4,-100.96 -36.19,-201.98 -51.96,-303.14 27.87,59.59 55.99,118.84 81.87,178.07 68.06,155.76 131.77,311.62 181.03,474.32 -0.68,0.85 -1.25,1.77 -1.85,2.69 -3.53,0 -7.23,0.43 -11.24,1.77"
         style="fill:rgb(12,66,159);fill-opacity:1;fill-rule:nonzero;stroke:none"
         id="path28" /><path
         d="m 3794.16,4660.94 c 14.96,-14.26 29.03,-29.24 42.87,-44.37 48.6,20.68 96.83,42.32 145.45,62.96 2.91,17.62 6.07,35.23 9.53,52.83 -32.24,-12.59 -65.37,-23.17 -97.46,-36.12 -32.97,-13.3 -65.9,-26.88 -100.39,-35.3"
         style="fill:rgb(12,66,159);fill-opacity:1;fill-rule:nonzero;stroke:none"
         id="path30" /><path
         d="m 3946.46,4514.31 c 6.15,18.67 12.72,37.26 19.6,55.78 -19.19,-9.9 -39.6,-18.28 -60.22,-24.54 12.6,-11.32 26.16,-21.7 40.62,-31.24"
         style="fill:rgb(12,66,159);fill-opacity:1;fill-rule:nonzero;stroke:none"
         id="path32" /><path
         d="m 3854.93,4597.05 c 10.18,-11.11 20.41,-22.13 31.05,-32.75 30.66,12.14 57.63,30.15 86.59,46.1 1.15,9.65 2.47,19.3 3.81,28.97 -18.08,-7.08 -37.31,-12.08 -55.12,-18.59 -22.1,-8.09 -44.07,-16.33 -66.33,-23.73"
         style="fill:rgb(12,66,159);fill-opacity:1;fill-rule:nonzero;stroke:none"
         id="path34" /><path
         d="m 3837.03,4616.57 c -13.84,15.13 -27.91,30.11 -42.87,44.37 34.49,8.42 67.42,22 100.39,35.3 32.09,12.95 65.22,23.53 97.46,36.12 -3.46,-17.6 -6.62,-35.21 -9.53,-52.83 -48.62,-20.64 -96.85,-42.28 -145.45,-62.96 z m 135.54,-6.17 c -28.96,-15.95 -55.93,-33.96 -86.59,-46.1 -10.64,10.62 -20.87,21.64 -31.05,32.75 22.26,7.4 44.23,15.64 66.33,23.73 17.81,6.51 37.04,11.51 55.12,18.59 -1.34,-9.67 -2.66,-19.32 -3.81,-28.97 z m -26.11,-96.09 c -14.46,9.54 -28.02,19.92 -40.62,31.24 20.62,6.26 41.03,14.64 60.22,24.54 -6.88,-18.52 -13.45,-37.11 -19.6,-55.78 z m -173.64,165.9 c -15.37,12.85 -30.94,25.45 -46.49,38.06 45.76,14.33 90.19,33.13 135.63,48.48 47.89,16.17 99.66,41.69 149.52,54.61 -3.77,-15.7 -7.36,-31.42 -10.8,-47.16 -73.22,-34.25 -149.91,-69.3 -226.16,-95.53 -0.58,0.5 -1.1,1.04 -1.7,1.54 z m -107.57,87.22 c 67.09,22.28 132.41,49.63 196.53,79.36 57.99,26.89 119.3,49.72 176.75,78.15 -6.14,-21.9 -12.03,-43.89 -17.68,-65.95 -51,-7.35 -98.05,-38.06 -145.91,-56.13 -55.82,-21.08 -107.15,-50.82 -161.71,-73.87 -15.95,12.86 -31.97,25.65 -47.98,38.44 z M 3612,4810.4 c 71.54,38.11 146.88,67.95 221.92,98.48 79.53,32.36 154.57,74.01 232.25,110.32 -5.07,-16.6 -10.06,-33.26 -14.96,-50.01 -0.76,-0.27 -1.51,-0.51 -2.28,-0.9 -128.46,-66.16 -259.59,-139.5 -394.15,-192.46 -14.31,11.45 -28.54,23.02 -42.78,34.57 z m -59.63,49.58 c 30.71,14.5 61.38,29.06 91.86,44.01 147,72.13 292.57,147.37 448.12,199.33 -4.42,-13.96 -8.82,-27.99 -13.23,-42.08 -1.41,-0.26 -2.86,-0.64 -4.33,-1.3 -78.95,-35.25 -153.82,-78.12 -232.44,-114.04 -83.21,-38.02 -165.57,-75.87 -242.4,-125.75 -16,13.08 -31.81,26.43 -47.58,39.83 z M 3190.78,4759.42 C 3043.61,4689.94 2897.24,4618.4 2749.29,4550.66 2635.67,4498.64 2519.8,4447.98 2419,4373.82 c -58.36,100.04 -84.76,213.96 -123.26,322.39 -42.87,120.72 -87.68,238.6 -143.25,354.24 -114.94,239.26 -249.4,471.53 -380.68,702.13 -139,244.18 -286.87,483.13 -432.85,723.15 -128.21,210.81 -282.27,404.08 -419.624,608.89 238.544,-172.7 490.344,-330.54 734.754,-494.4 269.1,-180.41 542.08,-354.67 824.81,-513.08 276.29,-154.81 556.42,-298.23 824.06,-468.41 139.95,-88.99 277.03,-182.46 412.26,-278.42 95.21,-67.56 195.93,-137.03 303.54,-185.84 -123.47,-46.17 -241.78,-104.69 -359.8,-163.6 -154.49,-77.1 -312.06,-147.75 -468.18,-221.45 z m -1831.1,2257.13 c 156.48,-50 314.21,-95.89 473.19,-137.24 165.57,-43.07 331.35,-85.23 497.09,-127.56 -16.65,-11.18 -33.08,-22.41 -49.19,-33.53 -11.94,-8.25 -1.54,-27.9 11.23,-20.01 25.13,15.52 52.04,29.29 79.18,42.97 13.6,-3.47 27.18,-6.98 40.77,-10.46 -33.27,-22.61 -66.74,-44.91 -103.27,-61.35 -11.39,-5.12 -3.66,-24.34 8.16,-20.31 50.32,17.14 99.66,41.46 147.26,68.29 121.94,-31.27 243.82,-62.69 365.52,-94.86 330.53,-87.36 657.55,-186.04 985.64,-281.93 161.31,-47.14 323.3,-95.75 488.11,-129.07 154.34,-31.2 308.56,-61.69 453.83,-124.38 3.75,-1.62 7.24,-2.35 10.61,-2.72 -94.47,-215.28 -295.63,-361.22 -420.93,-558.67 -2.52,1.88 -5.28,3.59 -8.57,4.87 -297.49,116.17 -589.03,244.82 -877.83,379.53 27.09,5.82 54.16,11.75 81.38,17.03 69.06,13.38 142.41,18.4 209.33,40.12 6.42,2.08 3.12,10.87 -3.13,9.67 -103.89,-19.89 -209.55,-36.66 -314.36,-54.33 -29.51,13.82 -58.99,27.69 -88.45,41.62 45.51,9.28 90.59,20.97 136.55,28.39 64.67,10.45 127.99,22.5 190.12,43.88 4.49,1.55 2.29,8.3 -2.27,7 -61.78,-17.53 -125.27,-24.22 -188.65,-33.15 -55.87,-7.88 -110.39,-22.06 -165.79,-31.91 -21.1,10.01 -42.19,20.03 -63.27,30.1 109.53,20.45 217.75,46.54 327.13,67.87 3.36,0.65 2.3,6.29 -1.07,5.9 -120.02,-13.8 -238.23,-39.1 -357.35,-58.8 -25.41,12.17 -50.83,24.34 -76.23,36.58 116.36,12.92 236.06,36.21 346.5,71.97 5.43,1.75 2.66,9.32 -2.68,8.23 -124.6,-25.48 -250.76,-40.83 -375.42,-64.93 -27.26,13.17 -54.54,26.35 -81.78,39.59 114.36,14.1 232.71,38.27 341.53,72.06 2.8,0.88 2.01,5.22 -0.93,5.07 -124.71,-6.66 -250.32,-42.43 -373.83,-60.97 -18.25,8.89 -36.5,17.75 -54.75,26.65 105.54,20.23 207.78,62.6 315.36,67.54 7.26,0.33 6.73,11.33 -0.51,11.24 -56.25,-0.66 -109.62,-11.8 -164.03,-25.12 -57.55,-14.08 -117.79,-22.26 -174.14,-39.95 -0.88,-0.27 -1.55,-0.75 -2.22,-1.24 -21.24,10.39 -42.48,20.78 -63.71,31.18 94.08,19.59 185.74,49.66 280.64,64.68 7.01,1.11 6.82,12.04 -0.5,11.24 -104.54,-11.51 -207.8,-40.11 -311.17,-60.74 -21.46,10.52 -42.92,21.06 -64.37,31.6 85.07,12.68 170.07,26.54 252.94,49.88 9.69,2.73 4.85,17.44 -4.82,14.82 -91.57,-24.81 -185.33,-35.11 -278.8,-49.64 -17.23,8.47 -34.48,16.93 -51.71,25.41 72.67,10.73 144.59,26.37 216.94,38.92 8.8,1.52 8.31,15.56 -0.64,14.05 -81.23,-13.72 -162.21,-28.16 -243.84,-39.44 -14.88,7.31 -29.75,14.62 -44.62,21.94 59.54,8.92 119.14,22.86 177.78,34.16 6.55,1.26 4.49,12.69 -2.11,11.6 -67.19,-11.02 -137.08,-16.85 -203.71,-31.99 -19.42,9.56 -38.86,19.1 -58.3,28.64 56.43,7.34 112.13,21.66 168.16,30.85 7.14,1.18 6.89,12.44 -0.51,11.46 -65.42,-8.63 -130.29,-20.3 -195.77,-28.5 -6.1,3 -12.2,6 -18.32,9 -11.3,5.55 -22.56,11.21 -33.86,16.76 35.01,4.38 69.87,10.71 104.73,15.33 7.08,0.94 6.83,11.75 -0.5,11.24 -44.88,-3.14 -89.75,-7.32 -134.57,-11.56 -11.23,5.54 -22.44,11.12 -33.67,16.67 19.47,3.09 38.78,7.18 57.94,12.93 9.63,2.9 4.83,17.64 -4.81,14.82 -26.84,-7.85 -54.27,-11.4 -81.89,-13.51 -13.03,6.45 -26.08,12.88 -39.1,19.35 1.85,0.31 3.69,0.65 5.51,0.91 13.39,1.88 26.81,3.65 40.24,5.15 8.95,0.99 8.5,14.26 -0.63,14.05 -23.16,-0.54 -51.26,0.65 -74.39,-5.63 -241.32,120.15 -481.5,243 -719.44,369.45 -196.5,104.43 -448.76,239.48 -639.831,281.6 151.151,-10.63 299.971,-74.7 442.871,-120.36 z M 4151.66,4988.29 c -25.88,-59.23 -54,-118.48 -81.87,-178.07 15.77,101.16 32.56,202.18 51.96,303.14 30.55,11.41 24.53,54.75 -0.9,61.45 -3.94,5.27 -9.5,9.68 -17.12,12.39 -134.05,47.59 -257.95,137.07 -373.66,218.46 -135.44,95.27 -273.41,186.89 -413.51,275.16 -268.19,168.97 -549.92,310.14 -826.7,463.71 -275.65,152.95 -541.9,322.68 -806.43,493.94 -232.39,150.45 -460.13,315.63 -699.961,455.43 95.081,-37.76 171.651,-86.28 259.141,-137.58 110.7,-64.91 239.68,-111.57 352.2,-173.43 302.96,-166.56 609.52,-326.64 918.4,-481.94 299.89,-150.78 601.12,-299.45 903.36,-445.44 293.73,-141.88 593.06,-285.28 903.03,-388.44 4.01,-1.34 7.71,-1.77 11.24,-1.77 0.6,-0.92 1.17,-1.84 1.85,-2.69 -49.26,-162.7 -112.97,-318.56 -181.03,-474.32 z M 3993.2,4460.16 c 11.99,-0.61 23.6,5.32 25.88,19.79 3.45,21.72 6.8,43.41 10.15,65.11 55.74,134.28 107.37,270.81 163.38,404.88 67.6,161.82 130.77,328.05 168.47,499.76 7.66,0.81 14.99,5.01 20.12,14.04 133.35,234.38 371.77,397.24 449.87,664.02 7.36,25.15 -27.55,39.11 -39.14,18.71 -3.61,4.21 -8.22,7.84 -14.18,10.4 -145.39,62.26 -299.78,92.55 -454.21,123.1 -164.96,32.64 -327.01,81.21 -488.51,127.7 -337.25,97.07 -673.19,197.1 -1013.04,284.97 -93.25,24.11 -186.64,47.75 -280.07,71.16 4.8,2.99 9.64,5.98 14.39,8.96 20.75,13.07 3.54,41.48 -18.23,32.46 -18.48,-7.64 -36.09,-17.04 -53.33,-27.2 -9.98,2.49 -19.96,4.96 -29.95,7.45 20.96,12.26 41.12,25.45 59.52,40.63 14.39,11.88 -3.32,32.9 -18.71,25.14 -31.25,-15.77 -62.44,-33.75 -93.22,-52.74 -192.86,47.78 -385.93,94.76 -578.96,141.84 -159.38,38.86 -317.16,84.17 -475.02,128.73 -146.1,41.24 -306.32,106.72 -460.461,85.84 -3.547,-0.48 -5.437,-2.83 -5.996,-5.6 -5.691,0.44 -10.547,-2.27 -13.613,-6.41 -8.582,-2.19 -15.352,-11.39 -10.344,-22.26 107.641,-233.02 289.124,-427.76 419.764,-647.7 143.55,-241.66 289.09,-482.16 428.2,-726.42 131.75,-231.34 262.6,-465.55 380.3,-704.41 61.36,-124.53 108.45,-252.98 154.31,-383.73 38.58,-110 64.85,-224.25 125.43,-325.14 0.45,-0.74 0.99,-1.29 1.47,-1.98 -10.47,-16.93 14.06,-38.62 32.14,-23.98 110.85,89.8 245.86,141.55 375.91,196.65 141.72,60.04 280.5,128.59 420.47,192.7 107.71,49.34 215.98,97.57 323.33,147.74 60.7,-77.55 139.65,-138.18 212.84,-203.44 68.85,-61.38 114.81,-142.98 197.99,-188.02 3.68,-2 7.3,-3.05 10.83,-3.55 13.56,-13.5 41.64,-12.21 52.22,10.8"
         style="fill:#ffffff;fill-opacity:1;fill-rule:nonzero;stroke:none"
         id="path36" /><path
         d="m 8311.23,3933.69 c 222.77,-68.64 402.28,-306.75 333.31,-547.53 -43.5,-151.84 -239.26,-203.73 -377.54,-189.29 -135.52,14.16 -214.43,131.68 -242.26,254.32 -41.84,184.47 23.5,370.43 137.95,514.57 50.33,-6.81 100.05,-17.13 148.54,-32.07 z M 5336.81,3727.32 c -48.31,92.26 -66.02,200.79 -69.38,303.78 -5.71,175.48 41.5,439.62 240.04,494.39 95.49,26.35 204.48,-15.91 283.18,-67.98 112.17,-74.21 137.89,-215.31 113.56,-339.03 -48.14,-244.74 -265.69,-411.35 -493.27,-495.15 -29.17,31.71 -54.49,66.47 -74.13,103.99 z m 4987.89,697.52 c -516.84,116.44 -1097.34,116.06 -1606.24,-37.13 -214.96,-64.72 -432,-169.36 -583.95,-338.87 -50.19,4.53 -100.23,6 -148.57,5.14 -225.78,-4 -453.07,-56.98 -661.27,-143.06 -115.03,-47.56 -222.26,-114 -332.22,-171.93 -143.93,-75.83 -290.5,-147.33 -442.05,-206.72 -285.63,-111.94 -625.39,-195.69 -919.05,-64.63 -56.8,25.35 -112.69,59.36 -162.3,100.62 255.42,100.53 479.35,307.54 515.32,589.23 32.76,256.56 -199.65,474.48 -453.81,446.72 -197.47,-21.57 -293.98,-219.97 -324.95,-394.75 -33.98,-191.73 -12.75,-422.82 104.27,-584.65 6.81,-9.42 13.92,-18.52 21.15,-27.47 -16.44,-4.64 -32.84,-8.87 -49.13,-12.65 -259.96,-60.27 -560.14,-12.73 -793.54,113.51 -238.87,129.19 -401.74,355.82 -482.75,611.44 -8.16,25.74 -48.62,15.75 -40.87,-10.5 83.82,-284.44 261.48,-525.28 523.72,-668.24 264.62,-144.24 601.6,-176.76 890.11,-93.53 1.9,0.55 3.78,1.17 5.69,1.73 176.19,-170.72 436.72,-232.01 677.8,-212.84 313.13,24.9 611.14,159.23 887.69,299.73 220.23,111.87 422.62,234.96 664.22,295.8 147.52,37.15 305.87,60.24 460.78,52.14 -130.61,-186.42 -181.16,-433.08 -89.01,-647.19 108.38,-251.83 441.3,-262.3 636.79,-108.54 198.4,156.05 111.23,485.3 -38.22,643.48 -94.14,99.62 -223.29,151.32 -357.86,175.15 5.95,5.89 11.97,11.71 18.09,17.39 169.88,157.68 399.54,241.47 621.09,295.02 460.97,111.39 975.12,105.67 1437.07,0.87 48.8,-11.09 70.9,63.7 22,74.73"
         style="fill:#ffffff;fill-opacity:1;fill-rule:nonzero;stroke:none"
         id="path38" /><path
         d="m 3121.48,4588.64 c -120.95,-42.79 -243.19,-77.6 -361.26,-128.71 -133.51,-57.81 -260.65,-133.98 -390.21,-200.25 -1.39,-0.71 -2.59,-1.5 -3.67,-2.35 -41.35,71.92 -62.35,154.84 -95.4,230.84 -40.72,93.66 -88.47,184.29 -131.85,276.72 -89.53,190.79 -162.25,390.44 -261.13,576.67 -2.14,4.02 -8.93,1.43 -7.48,-2.99 63.15,-192.74 146.17,-380.55 229.68,-565.18 42.38,-93.71 87.24,-186.29 130.42,-279.64 39.32,-85.05 61.4,-179.63 110.47,-259.8 6.03,-9.87 17.22,-9.69 24.55,-4.58 5.63,-6.04 14.54,-9.22 24.12,-4.79 117.42,54.31 227.29,123.04 341.82,182.92 125.63,65.69 259.56,122.83 391.89,173.59 4.59,1.77 2.84,9.24 -1.95,7.55"
         style="fill:#ffffff;fill-opacity:1;fill-rule:nonzero;stroke:none"
         id="path40" /><path
         d="m 3035.92,4496.15 c -125.81,-28.49 -237.4,-102.27 -353.49,-155.85 -123.7,-57.1 -246.1,-119.46 -364.68,-185.64 -1.72,-0.97 -3.14,-2.1 -4.41,-3.29 -32.49,51.39 -45.34,110.45 -61.31,168.84 -18.07,66.1 -50.75,124.59 -81.92,185.21 -75.94,147.68 -142.72,295.74 -202.23,450.77 -1.65,4.29 -7.58,2.81 -6.91,-1.78 22.71,-156.26 95.83,-304.93 166.63,-444.34 36.63,-72.14 73.06,-140.47 95.14,-218.67 17.27,-61.08 34.54,-119.8 72.87,-171.21 5.64,-7.57 15.14,-6.11 21.52,-0.91 5.61,-3.99 13.08,-5.24 20.97,-0.86 111.07,61.73 225.35,121.3 340.27,176.29 119.55,57.21 235.97,140.2 364.45,174.61 17.26,4.63 10.52,30.78 -6.9,26.83"
         style="fill:#ffffff;fill-opacity:1;fill-rule:nonzero;stroke:none"
         id="path42" /><path
         d="m 3910.92,5127.15 c 5.51,2.03 8.91,5.91 10.61,10.34 3.29,-1.37 6.5,-2.88 9.82,-4.2 19.78,-7.92 29.16,24.12 9.34,31.76 -177.72,68.53 -309.5,218.65 -478.45,300.48 -8.79,4.26 -16.14,-7.39 -7.93,-13.03 142.93,-98.29 273.04,-223.15 431.04,-298.78 -66.64,-28.38 -128.37,-67.39 -192.91,-100.2 -93.81,-47.7 -190.46,-89.63 -284.65,-136.58 -7.63,-3.81 -2.47,-17.21 5.64,-14.03 82.54,32.37 164.82,65.61 245.63,102.13 84.67,38.26 164.68,90.06 251.86,122.11"
         style="fill:#ffffff;fill-opacity:1;fill-rule:nonzero;stroke:none"
         id="path44" /><path
         d="m 1582.39,6586.46 c -176.02,102.29 -325.47,247.39 -496.11,358.57 -19.35,12.61 -37.84,-18.03 -18.56,-30.5 171.38,-110.88 324.59,-247.28 505.56,-343.05 9.93,-5.25 18.95,9.26 9.11,14.98"
         style="fill:#ffffff;fill-opacity:1;fill-rule:nonzero;stroke:none"
         id="path46" /><path
         d="m 941.797,6931.15 c -49.902,85.15 -105.547,168.68 -148.621,257.44 -2.688,5.54 -11.391,1.83 -9.863,-3.96 22.878,-86.91 78.191,-168.19 121.746,-246.01 50.781,-90.75 113.541,-173.96 159.211,-267.56 8.34,-17.1 33,-2.67 25.48,14.3 -38.83,87.63 -99.652,163.39 -147.953,245.79"
         style="fill:#ffffff;fill-opacity:1;fill-rule:nonzero;stroke:none"
         id="path48" /><path
         d="m 916.484,6883.85 c -43.183,63.12 -105.468,128.23 -128.144,202.3 -2.688,8.77 -14.754,5.3 -13.516,-3.47 8.946,-63.35 54.641,-118.79 88.567,-171.15 47.554,-73.41 96.726,-145.47 141.899,-220.41 10.69,-17.72 38.98,-1.89 28.02,15.73 -37.372,60.13 -76.845,118.59 -116.826,177"
         style="fill:#ffffff;fill-opacity:1;fill-rule:nonzero;stroke:none"
         id="path50" /><path
         d="m 4447.67,5750.32 c -47.61,-55.99 -96.51,-119.77 -133.31,-183.1 -7.58,-13.05 12.37,-25.16 19.97,-12.15 44.21,75.73 103.64,150.74 160.48,217 49.5,57.68 111.22,108.11 148.96,174.6 4.15,7.3 -6.46,13.7 -11.08,6.74 -49.96,-75.09 -126.5,-134.24 -185.02,-203.09"
         style="fill:#ffffff;fill-opacity:1;fill-rule:nonzero;stroke:none"
         id="path52" /><path
         d="m 4267.23,5591.34 c -7.78,-12.65 11.64,-24.35 19.6,-11.92 77.89,121.63 181.91,228.2 279.67,333.72 5.55,6 -2.95,14.98 -8.87,9.18 -103.75,-101.47 -213.84,-206.42 -290.4,-330.98"
         style="fill:#ffffff;fill-opacity:1;fill-rule:nonzero;stroke:none"
         id="path54" /><path
         d="m 4225.04,5603.27 c -9.23,-12.81 11.8,-25.47 20.89,-12.7 70.5,98.95 143.31,216.54 239.84,292.59 2.57,2.03 -0.1,6.02 -2.97,5.3 -45.48,-11.47 -89.87,-75.03 -120.1,-108.45 -50.61,-55.93 -93.65,-115.67 -137.66,-176.74"
         style="fill:#ffffff;fill-opacity:1;fill-rule:nonzero;stroke:none"
         id="path56" /><path
         d="m 4172.87,5633.87 c -6.22,-12.72 12.05,-24.32 19.05,-11.58 21.72,39.54 57.67,73.96 87.1,108.12 36.64,42.5 77.07,81.87 117.37,120.86 6.85,6.65 -3.12,16.81 -10.23,10.59 -42.37,-37.05 -83.13,-75.35 -121.62,-116.45 -31.39,-33.53 -71.26,-69.85 -91.67,-111.54"
         style="fill:#ffffff;fill-opacity:1;fill-rule:nonzero;stroke:none"
         id="path58" /><path
         d="m 4157.9,5630.7 c 35.78,72.01 106.99,125.55 139.95,199.75 0.51,1.16 -0.26,2.29 -1.55,2.09 -18.59,-2.87 -45.81,-48.83 -56.28,-61.4 -33.4,-40.08 -78.46,-81.54 -100.06,-129.53 -5.42,-12.07 11.84,-23.18 17.94,-10.91"
         style="fill:#ffffff;fill-opacity:1;fill-rule:nonzero;stroke:none"
         id="path60" /><path
         d="m 4113.23,5652 c 16.22,18.12 26.9,40.23 41.43,59.67 19.42,25.99 36.98,53.26 57.02,78.81 5.07,6.47 -5.92,15.23 -11.24,8.99 -36.19,-42.56 -66.4,-89.57 -101.19,-133 -7.89,-9.84 5.14,-24.33 13.98,-14.47"
         style="fill:#ffffff;fill-opacity:1;fill-rule:nonzero;stroke:none"
         id="path62" /><path
         d="m 4652.83,5756.66 c -47.7,-49.14 -90.57,-103.9 -136.9,-154.56 -44.23,-48.36 -92.33,-101.61 -122.91,-159.63 -1.36,-2.56 -1.48,-5.01 -1.08,-7.31 -18.78,-60.19 -36.47,-120.63 -54.11,-181.16 -14.27,-49.04 -33.76,-96.26 -38.26,-147.46 -0.4,-4.47 6.99,-5.64 7.84,-1.2 20.61,108.5 70.11,220.59 108.19,324.28 0.9,2.48 0.75,4.63 0.21,6.61 63.7,116.01 172.63,203.23 243.06,315.61 2.33,3.73 -2.93,8.02 -6.04,4.82"
         style="fill:#ffffff;fill-opacity:1;fill-rule:nonzero;stroke:none"
         id="path64" /></g></g></svg>
